name GIL06_fast3EmgEnv.mot
datacolumns 51
datarows 10
range 0.82129633 0.82962966
endheader
                time	   rect_fem_l_emgRec	   rect_fem_l_emgEnv	   rect_fem_l_emgAve	   rect_fem_l_emgSDp	   rect_fem_l_emgSDm	   rect_fem_r_emgRec	   rect_fem_r_emgEnv	   rect_fem_r_emgAve	   rect_fem_r_emgSDp	   rect_fem_r_emgSDm	   med_hams_l_emgRec	   med_hams_l_emgEnv	   med_hams_l_emgAve	   med_hams_l_emgSDp	   med_hams_l_emgSDm	   med_hams_r_emgRec	   med_hams_r_emgEnv	   med_hams_r_emgAve	   med_hams_r_emgSDp	   med_hams_r_emgSDm	   lat_hams_l_emgRec	   lat_hams_l_emgEnv	   lat_hams_l_emgAve	   lat_hams_l_emgSDp	   lat_hams_l_emgSDm	   lat_hams_r_emgRec	   lat_hams_r_emgEnv	   lat_hams_r_emgAve	   lat_hams_r_emgSDp	   lat_hams_r_emgSDm	    tib_ant_l_emgRec	    tib_ant_l_emgEnv	    tib_ant_l_emgAve	    tib_ant_l_emgSDp	    tib_ant_l_emgSDm	    tib_ant_r_emgRec	    tib_ant_r_emgEnv	    tib_ant_r_emgAve	    tib_ant_r_emgSDp	    tib_ant_r_emgSDm	    gas_sol_l_emgRec	    gas_sol_l_emgEnv	    gas_sol_l_emgAve	    gas_sol_l_emgSDp	    gas_sol_l_emgSDm	    gas_sol_r_emgRec	    gas_sol_r_emgEnv	    gas_sol_r_emgAve	    gas_sol_r_emgSDp	    gas_sol_r_emgSDm	
          0.82129633	          0.04660984	          0.03978655	          0.06421547	          0.09700133	          0.03142960	          0.03039287	          0.06034784	          0.08089726	          0.12608587	          0.03570865	          0.05286240	          0.17377781	          0.15878683	          0.20477391	          0.11279976	          0.01116350	          0.11921703	          0.10479810	          0.20432973	          0.00526647	          0.05303260	          0.03434419	          0.10886591	          0.14983090	          0.06790092	          0.02254224	          0.12319566	          0.15934451	          0.28436160	          0.03432742	          0.00715141	          0.15287399	          0.16425547	          0.21202381	          0.11648713	          0.00803256	          0.05578600	          0.05219697	          0.06333335	          0.04106058	          0.00476361	          0.03524979	          0.02527681	          0.03332218	          0.01723145	          0.17411186	          0.31430823	          0.28678048	          0.35442309	          0.21913786	
          0.82222223	          0.02679660	          0.03985001	          0.06457141	          0.09763124	          0.03151158	          0.03793798	          0.05974727	          0.08198533	          0.12758791	          0.03638275	          0.08297199	          0.17498754	          0.15909263	          0.20522649	          0.11295878	          0.02405505	          0.12181698	          0.10787848	          0.20784795	          0.00790900	          0.03899925	          0.03387828	          0.10811611	          0.14918761	          0.06704462	          0.00350775	          0.12522843	          0.16155528	          0.28773922	          0.03537133	          0.00719112	          0.15045586	          0.16174796	          0.20953940	          0.11395652	          0.02240897	          0.05689037	          0.05272124	          0.06392764	          0.04151484	          0.00476046	          0.03549411	          0.02504654	          0.03315964	          0.01693344	          0.20675264	          0.31536475	          0.29021299	          0.35810777	          0.22231821	
          0.82314819	          0.00512948	          0.03994295	          0.06494541	          0.09829629	          0.03159453	          0.02493245	          0.05917012	          0.08308168	          0.12910442	          0.03705893	          0.05776254	          0.17623934	          0.15942907	          0.20570751	          0.11315063	          0.03162713	          0.12434287	          0.11104526	          0.21148256	          0.01060797	          0.01637205	          0.03347267	          0.10735276	          0.14852662	          0.06617891	          0.03425851	          0.12731422	          0.16382377	          0.29118982	          0.03645772	          0.02038393	          0.14812044	          0.15930818	          0.20712778	          0.11148858	          0.02869942	          0.05800434	          0.05326799	          0.06454960	          0.04198638	          0.00322190	          0.03573863	          0.02481571	          0.03299795	          0.01663347	          0.16402736	          0.31638432	          0.29370576	          0.36185762	          0.22555391	
          0.82407409	          0.01773889	          0.04006622	          0.06533792	          0.09899691	          0.03167893	         -0.00025219	          0.05861666	          0.08418589	          0.13063490	          0.03773689	          0.02042670	          0.17753117	          0.15979610	          0.20621737	          0.11337484	          0.03883521	          0.12678933	          0.11429755	          0.21523250	          0.01336261	          0.00793151	          0.03312817	          0.10657713	          0.14784948	          0.06530477	          0.04519958	          0.12944775	          0.16614954	          0.29471269	          0.03758639	          0.04097200	          0.14586787	          0.15693752	          0.20479030	          0.10908475	          0.00733138	          0.05912587	          0.05383708	          0.06519907	          0.04247510	          0.00756484	          0.03598237	          0.02458461	          0.03283740	          0.01633181	          0.01645307	          0.31736735	          0.29725790	          0.36567171	          0.22884409	
          0.82499999	          0.03807383	          0.04022063	          0.06574952	          0.09973372	          0.03176532	          0.02196970	          0.05808710	          0.08529780	          0.13217912	          0.03841648	          0.07593874	          0.17886097	          0.16019377	          0.20675658	          0.11363096	          0.06451010	          0.12915116	          0.11763521	          0.21909750	          0.01617292	          0.01127219	          0.03284551	          0.10579044	          0.14715777	          0.06442312	          0.00943732	          0.13162364	          0.16853233	          0.29830737	          0.03875728	          0.11434634	          0.14369815	          0.15463698	          0.20252794	          0.10674602	          0.00623260	          0.06025289	          0.05442849	          0.06587599	          0.04298098	          0.02071669	          0.03622433	          0.02435351	          0.03267830	          0.01602872	          0.12098622	          0.31831438	          0.30086926	          0.36954990	          0.23218861	
          0.82592595	          0.04416268	          0.04040695	          0.06618083	          0.10050734	          0.03185431	          0.04577779	          0.05758166	          0.08641728	          0.13373694	          0.03909762	          0.10446911	          0.18022667	          0.16062205	          0.20732565	          0.11391844	          0.06207649	          0.13142332	          0.12105796	          0.22307724	          0.01903869	          0.01971530	          0.03262538	          0.10499396	          0.14645308	          0.06353485	          0.02896808	          0.13383644	          0.17097192	          0.30197355	          0.03997028	          0.06441520	          0.14161119	          0.15240751	          0.20034165	          0.10447337	          0.00675687	          0.06138332	          0.05504219	          0.06658032	          0.04350405	          0.01909103	          0.03646355	          0.02412266	          0.03252092	          0.01572441	          0.03715106	          0.31922613	          0.30453959	          0.37349193	          0.23558725	
          0.82685184	          0.04674282	          0.04062594	          0.06663232	          0.10131819	          0.03194644	          0.04835153	          0.05710051	          0.08754393	          0.13530785	          0.03978001	          0.12101826	          0.18162618	          0.16108078	          0.20792490	          0.11423665	          0.02416207	          0.13360098	          0.12456489	          0.22717053	          0.02195924	          0.01828072	          0.03246834	          0.10418913	          0.14573717	          0.06264108	          0.01896405	          0.13608071	          0.17346771	          0.30571027	          0.04122515	          0.02890081	          0.13960680	          0.15025048	          0.19823278	          0.10226818	          0.02406439	          0.06251510	          0.05567804	          0.06731188	          0.04404419	          0.00046694	          0.03669903	          0.02389241	          0.03236561	          0.01541921	          0.05606636	          0.32010346	          0.30826786	          0.37749670	          0.23903902	
          0.82777780	          0.05189807	          0.04087831	          0.06710465	          0.10216696	          0.03204233	          0.02690851	          0.05664379	          0.08867762	          0.13689170	          0.04046354	          0.08039208	          0.18305743	          0.16157007	          0.20855502	          0.11458512	          0.00415457	          0.13567951	          0.12815590	          0.23137721	          0.02493460	          0.00528751	          0.03237492	          0.10337724	          0.14501173	          0.06174274	          0.05092254	          0.13835097	          0.17601962	          0.30951737	          0.04252188	          0.08512391	          0.13768470	          0.14816676	          0.19620219	          0.10013134	          0.03008706	          0.06364615	          0.05633596	          0.06807057	          0.04460135	          0.00457486	          0.03692982	          0.02366301	          0.03221267	          0.01511335	          0.04063260	          0.32094747	          0.31205407	          0.38156425	          0.24254388	
          0.82870370	          0.03924436	          0.04116472	          0.06759830	          0.10305405	          0.03214255	          0.04128185	          0.05621161	          0.08981802	          0.13848804	          0.04114799	          0.03392406	          0.18451835	          0.16208975	          0.20921638	          0.11496312	          0.01862773	          0.13765452	          0.13183004	          0.23569605	          0.02796403	          0.04137472	          0.03234555	          0.10255977	          0.14427860	          0.06084093	          0.05865151	          0.14064178	          0.17862685	          0.31339364	          0.04386006	          0.11386817	          0.13584450	          0.14615764	          0.19425113	          0.09806414	          0.01396453	          0.06477442	          0.05701581	          0.06885619	          0.04517544	          0.00799805	          0.03715495	          0.02343482	          0.03206248	          0.01480716	          0.00024787	          0.32175942	          0.31589720	          0.38569347	          0.24610092	
          0.82962966	          0.01864917	          0.04148582	          0.06811396	          0.10398016	          0.03224776	          0.02720507	          0.05580407	          0.09096499	          0.14009672	          0.04183325	          0.03668366	          0.18600689	          0.16263983	          0.20990957	          0.11537008	          0.08291487	          0.13952186	          0.13558705	          0.24012673	          0.03104737	          0.04870460	          0.03238058	          0.10173813	          0.14353959	          0.05993668	          0.08807173	          0.14294776	          0.18128937	          0.31733902	          0.04523973	          0.13044241	          0.13408574	          0.14422397	          0.19238050	          0.09606745	          0.00952610	          0.06589790	          0.05771751	          0.06966863	          0.04576639	          0.03359058	          0.03737347	          0.02320812	          0.03191535	          0.01450089	          0.00628184	          0.32254084	          0.31979707	          0.38988420	          0.24970994	
